<svg xmlns="http://www.w3.org/2000/svg" width="1024" height="1024" viewBox="0 0 1024 1024" version="1.1"><path d="M 251 276.174 C 251 276.858, 257.417 283.961, 265.260 291.958 C 273.104 299.956, 284.888 312.125, 291.448 319 C 298.008 325.875, 313.303 341.625, 325.437 354 L 347.500 376.500 470.500 377.020 L 593.500 377.541 601.446 379.780 C 612.247 382.823, 624.141 388.745, 633.612 395.796 C 662.365 417.202, 675.408 460.917, 663.808 497 C 656.153 520.815, 639.824 540.027, 617.850 551.075 C 602.115 558.987, 585.551 561.997, 557.750 561.999 C 547.411 562, 544.003 562.310, 544.012 563.250 C 544.019 563.938, 546.157 566.750, 548.762 569.501 C 551.368 572.252, 558.900 580.332, 565.500 587.458 C 572.100 594.584, 588.414 611.989, 601.753 626.136 C 629.151 655.194, 624.932 652.712, 638.248 647.606 C 684.147 630.008, 723.639 593.371, 745.078 548.500 C 765.174 506.439, 769.472 456.064, 756.603 413.407 C 737.785 351.028, 685.178 299.122, 623.500 282.078 C 598.614 275.200, 613.450 275.703, 423.250 275.298 C 286.463 275.007, 251 275.187, 251 276.174 M 456.973 430.703 C 455.613 431.639, 451.537 434.901, 447.916 437.953 C 444.295 441.004, 435.363 448.446, 428.067 454.491 C 413.899 466.230, 411.412 469.324, 412.932 473.321 C 413.782 475.556, 453.198 509.430, 457.842 511.915 C 458.956 512.512, 460.608 513, 461.511 513 C 464.081 513, 469 507.479, 469 504.596 C 469 502.044, 466.556 499.836, 444.087 482.087 C 441.014 479.660, 436.824 476.184, 434.776 474.363 L 431.053 471.053 450.026 455.374 C 466.678 441.613, 469 439.340, 469 436.799 C 469 433.403, 464.809 429, 461.576 429 C 460.404 429, 458.332 429.766, 456.973 430.703 M 517.115 430.750 C 515.922 431.741, 513.001 437.921, 510.381 445 C 507.836 451.875, 504.958 459.525, 503.985 462 C 496.990 479.797, 487 507.346, 487 508.841 C 487 513.517, 496.222 517.256, 499.489 513.904 C 500.241 513.132, 504.516 502.600, 508.988 490.500 C 513.461 478.400, 519.764 461.721, 522.994 453.436 C 530.490 434.213, 530.685 433.414, 528.464 430.960 C 526.203 428.462, 520.008 428.347, 517.115 430.750 M 558.895 431.281 C 556.028 435.244, 555.880 437.325, 558.262 440.198 C 559.493 441.683, 567.925 449.030, 577 456.527 C 586.075 464.023, 593.582 470.459, 593.681 470.828 C 593.875 471.544, 593.039 472.254, 571.160 489.959 C 557.669 500.876, 557 501.588, 557 505.034 C 557 509.341, 560.310 513, 564.206 513 C 566.070 513, 572.140 508.531, 586.142 496.850 C 596.789 487.968, 606.781 479.756, 608.347 478.600 C 612.531 475.515, 614.272 471.692, 612.883 468.643 C 611.867 466.413, 599.593 455.744, 575.615 436.250 C 565.747 428.227, 561.926 427.092, 558.895 431.281 M 357 563.149 C 357 563.782, 361.833 569.294, 367.741 575.399 C 381.329 589.443, 402.607 611.472, 420.001 629.504 C 443.163 653.515, 503.417 715.444, 527.022 739.500 C 539.435 752.150, 555.645 768.697, 563.045 776.270 L 576.500 790.041 644.297 789.770 L 712.093 789.500 684.362 760.500 C 669.109 744.550, 642.223 716.425, 624.614 698 C 607.005 679.575, 587.851 659.612, 582.049 653.637 C 576.247 647.663, 571.050 642.236, 570.500 641.578 C 569.512 640.397, 559.884 630.326, 534.573 604 C 527.435 596.575, 515.307 584.087, 507.622 576.250 L 493.651 562 425.325 562 C 374.520 562, 357 562.295, 357 563.149" stroke="none" fill="#fbfbfb" fill-rule="evenodd"/></svg>